<?xml version="1.0" encoding="UTF-8"?><svg xmlns="http://www.w3.org/2000/svg" viewBox="0 0 455.97 541.43"><defs><style>.f{fill:#fff;}</style></defs><g id="a"/><g id="b"><g id="c"><g id="d"><g id="e"><g><path class="f" d="M228.02,455.94C104.87,456.6-.02,356.69,0,227.96,.02,99.29,105.43-1.72,231.32,.02c123.43,1.71,226.43,103.21,224.63,231.46-1.75,124.77-104.03,224.97-227.93,224.46h0ZM132.15,35.88c-1.07,.44-1.73,.66-2.34,.97-29.57,15.33-54.43,36.27-74.25,63.02-25.11,33.89-39.14,71.93-41.95,114.06-1.33,19.88,.05,39.56,4.22,59.04,7.15,33.37,21.47,63.34,42.86,89.89,19.79,24.56,43.86,43.89,72.12,57.89,24.12,11.95,49.63,19.04,76.48,21.38,18.41,1.6,36.71,.91,54.89-2.21,30.87-5.29,59.31-16.75,85.13-34.52,30.77-21.18,54.61-48.47,71.22-81.93,15.99-32.19,23.33-66.32,22.2-102.29-.43-13.77-2.01-27.38-5.17-40.77-12.27-52.03-39.86-94.13-82.86-125.84-35.56-26.23-75.72-39.72-119.85-41.36-12.8-.48-25.52,.39-38.2,2.22-20.5,2.97-40.11,8.88-58.93,17.51-1.36,.62-1.87,1.36-1.87,2.87,.04,24.7,.03,49.4,.05,74.11,0,.69,.08,1.46,.39,2.05,2.45,4.65,5,9.25,7.43,13.92,.75,1.43,1.74,2.19,3.27,2.81,4.04,1.65,8.2,3.24,11.86,5.56,11.14,7.08,11.02,16.11,9.88,27.51-.23,.04-.47,.1-.71,.1-6.63,0-13.27,.06-19.9,0-1.81-.02-2.73,.23-3.19,2.39-.96,4.48-3.68,7.81-8.31,9.01-6.25,1.63-12.08-2.2-13.66-9.11-.45-1.97-1.24-2.35-3.02-2.3-3.91,.12-7.83,.04-11.75,.04h-9.52c0-3.48-.06-6.66,.01-9.83,.14-6.43,2.66-11.78,7.62-15.88,4.24-3.5,9.07-5.96,14.35-7.45,1.78-.5,2.83-1.44,3.63-3.06,1.97-4.01,3.87-8.08,6.25-11.85,1.38-2.2,1.65-4.33,1.64-6.74-.04-22.54-.02-45.09-.02-67.63v-3.59h0Zm33.22,122.2c0-2.03-.03-3.78,0-5.53,.11-5.88-2.35-10.53-6.95-14.01-14.25-10.81-35.16-10.7-49.28,.24-5.8,4.5-7.8,11.18-6.31,19.3h62.54Z"/><path class="f" d="M111.43,482.92h6.19v21.91c1.44-1.17,2.35-1.89,3.24-2.63,6.87-5.73,13.79-11.4,20.55-17.25,1.89-1.64,3.78-2.44,6.23-2.18,1.25,.13,2.53,.02,4.61,.02-7.9,6.68-15.26,12.9-22.81,19.28,7.86,8.34,15.56,16.5,23.53,24.96,2.31-5.34,4.48-10.34,6.63-15.35,3.87-9.01,7.76-18.01,11.57-27.04,.58-1.37,1.35-1.69,2.8-1.92,4.42-.7,6.49,1.07,8.2,5.2,5.16,12.44,10.87,24.64,16.37,36.94,.38,.86,.73,1.73,1.22,2.91-2.05,0-3.87,.13-5.65-.07-.65-.07-1.48-.81-1.78-1.45-1.61-3.38-3.12-6.81-4.57-10.27-.53-1.27-1.22-1.81-2.67-1.79-6.07,.08-12.14,.08-18.21,0-1.45-.02-2.11,.53-2.61,1.81-1.26,3.19-2.73,6.29-3.97,9.49-.65,1.69-1.45,2.56-3.46,2.38-2.46-.23-4.98-.29-7.42,0-3.06,.38-5-.93-6.94-3.1-5.42-6.08-11.04-11.98-16.59-17.94-.37-.4-.79-.75-1.33-1.25-2.1,1.68-4.22,3.24-6.15,5-.53,.48-.7,1.55-.71,2.35-.06,4.86-.03,9.71-.03,14.7h-6.23v-44.71h0Zm73.26,25.63c-3.04-7.01-5.97-13.78-9.05-20.88-2.9,7.19-5.64,13.99-8.41,20.88h17.46Z"/><path class="f" d="M207.35,482.79c2.27,0,4.42-.12,6.54,.07,.7,.06,1.49,.8,1.96,1.44,8.45,11.43,16.85,22.9,25.27,34.35,.14,.19,.32,.35,.72,.77v-36.5h5.73v44.82c-2.15,0-4.37,.16-6.55-.09-.73-.08-1.46-1.09-1.99-1.83-8.27-11.46-16.51-22.95-24.76-34.43-.32-.45-.66-.88-1.29-1.7v37.92h-5.65v-44.83h.02Z"/><path class="f" d="M310.06,482.79c1.47,0,2.88-.02,4.3,0,7.1,.13,14.23-.15,21.27,.53,7.72,.74,11.78,5.99,11.51,13.53-.25,7.21-5.09,12.08-12.68,12.69-1.91,.15-3.83,.08-5.75,.13-4.05,.09-8.1,.18-12.16,.28-.12,4.12-.25,8.24-.35,12.36-.04,1.74,0,3.48,0,5.33h-6.15v-44.85h.01Zm6.28,21.44c5.93,0,11.75,.33,17.52-.1,4.64-.35,6.98-3.46,7-7.9,.02-4.2-2.41-7.21-6.92-7.74-4.02-.48-8.11-.38-12.17-.49-1.8-.05-3.6,0-5.43,0v16.24h0Z"/><path class="f" d="M302.33,527.56c-.32,.1-.39,.14-.47,.15-4.08,.24-6.96-1.52-8.64-5.29-.97-2.19-2.02-4.34-2.92-6.56-.49-1.21-1.16-1.68-2.5-1.67-6.15,.07-12.31,.07-18.46,0-1.37-.02-1.96,.54-2.44,1.72-1.31,3.25-2.83,6.43-4.06,9.71-.63,1.7-1.52,2.4-3.33,2.18-1.26-.16-2.55-.03-4.18-.03,1.44-3.42,2.77-6.63,4.15-9.83,4.75-11.06,9.55-22.11,14.24-33.19,.62-1.46,1.33-2.02,2.98-2,5.65,.08,5.64,0,7.91,5.11,5.49,12.3,10.99,24.6,16.48,36.91,.39,.87,.75,1.74,1.21,2.8h.03Zm-15-18.99c-3.04-7.01-5.98-13.8-9.06-20.9-2.89,7.16-5.63,13.97-8.43,20.9h17.49Z"/><path class="f" d="M161.76,541.43c.59-.63,.82-1.1,1.05-1.1,43.06-.03,86.13-.04,129.19-.02,.37,0,.74,.21,1.11,.32l-.52,.8H161.76Z"/><path class="f" d="M384.03,243.26c.82-.08,1.44-.18,2.06-.18,7.83,0,15.67-.05,23.5,0,6.18,.05,11.03,3.43,12.95,8.85,1.88,5.31,.39,11.3-4.13,14.66-2.17,1.62-4.9,2.47-7.94,3.95v2.57c.09,10.79-.11,21.54-2.39,32.17-5.78,26.95-22.57,42.79-49.18,48.22-8.15,1.66-16.62,1.8-24.95,2.55-1.96,.18-3.95,.03-6.31,.03,1.48,4.4,2.89,8.44,4.18,12.52,.4,1.26,.77,2.66,.63,3.95-.33,3.16-2.64,5.32-5.61,5.63-3.36,.35-5.92-1.18-7.07-4.43-1.83-5.18-3.62-10.39-5.32-15.61-.49-1.51-1.19-2.09-2.87-2.09-55.71,.05-111.43,.05-167.14,0-1.63,0-2.38,.45-2.88,2.05-1.61,5.09-3.39,10.12-5.13,15.17-1.39,4.03-4.91,5.91-8.64,4.65-3.53-1.2-5.12-4.87-3.8-8.86,1.4-4.22,2.84-8.42,4.39-13.01-3.77,0-7.19,.11-10.6-.02-10.65-.39-21.14-1.8-31.21-5.49-20.74-7.61-33.12-22.55-38.23-43.81-2.21-9.21-2.92-18.59-2.91-28.04v-8.78c-.69-.17-1.28-.32-1.88-.46-6.78-1.54-11.19-6.99-10.91-13.49,.29-6.73,5.03-12.26,12.03-12.64,8.91-.49,17.86-.12,27.05-.12,.05,1,.13,1.92,.13,2.84,0,10.47-.23,20.95,.09,31.42,.22,7.24,.7,14.54,1.97,21.65,2.94,16.54,13.52,25.75,29.69,28.62,6.26,1.11,12.68,1.82,19.02,1.83,70.26,.13,140.52,.1,210.78,.05,7.74,0,15.44-.74,23-2.68,14.3-3.68,23-12.67,25.62-27.16,1.12-6.18,1.75-12.5,1.91-18.78,.3-11.66,.09-23.34,.09-35.01v-2.71h.01Z"/><path class="f" d="M226.35,322.5H115.59c-17.72,0-33.8-13.99-35.03-31.64-.94-13.44-.44-26.98-.54-40.48-.01-1.99,.14-3.99,.41-5.96,1.51-11.36,11.48-20.61,22.87-21.24,2.95-.16,5.9-.24,8.85-.25,29.24-.02,58.49-.02,87.73,0,4.16,0,8.29,.3,12.15,2.14,9.53,4.55,14.38,12.24,14.45,22.66,.16,24.29,.05,48.58,.04,72.88,0,.54-.09,1.08-.16,1.89h0Z"/><path class="f" d="M229.6,322.5v-75.15c0-13.12,9.53-23.33,22.59-24.2,2.15-.14,4.3-.23,6.46-.23,29.97,0,59.94,0,89.91,0,6.3,0,12.23,1.24,17.3,5.22,6.39,5.03,9.93,11.58,9.97,19.79,.07,13.03,.03,26.06,.01,39.09-.02,17.21-13.2,32.5-30.19,35.02-1.65,.24-3.33,.44-5,.44-36.12,.02-72.25,.02-108.37,.02h-2.68Z"/></g></g></g></g></g></svg>