<svg width="46" height="46" viewBox="0 0 46 46" fill="none" xmlns="http://www.w3.org/2000/svg">
<path d="M22.9769 45.6853C10.3758 45.64 0.335773 35.5593 0.358437 22.964C0.3811 10.3234 10.5118 0.310637 23.2262 0.33329C35.6459 0.33329 45.9126 10.7991 45.7766 23.2132C45.618 35.6952 35.5326 45.7306 22.9769 45.6853ZM11.1011 22.7148V29.0125C11.1011 31.4137 11.1011 31.3684 13.4808 31.3684C14.2287 31.3684 14.342 31.0966 14.3193 30.4396C14.274 28.9218 14.3646 27.3814 14.2966 25.8636C14.2513 25.0481 14.5006 24.8216 15.2939 24.8669C16.7443 24.9802 18.2175 24.9122 19.6453 24.6177C22.1836 24.0967 23.7021 21.3103 23.1808 18.3201C22.7956 16.1 21.3224 14.1971 18.6028 14.1292C16.4044 14.0839 14.1833 14.1292 11.9849 14.0386C11.1917 14.0159 11.0557 14.3104 11.0557 15.0127C11.1011 17.5725 11.0557 20.1323 11.0557 22.6922L11.1011 22.7148ZM29.6173 18.4786C29.0961 18.5466 28.5521 18.5919 28.0309 18.6825C26.1498 19.0223 24.9033 20.2456 24.7673 21.8313C24.586 23.9608 25.2659 25.0708 27.3283 25.8183C28.5521 26.2714 29.844 26.5659 31.0905 26.951C31.4531 27.0643 31.8384 27.2002 31.8837 27.6986C31.9064 28.1516 31.8384 28.5367 31.4531 28.8312C30.2973 29.6694 28.2349 29.1937 27.5776 27.9024C27.4643 27.6759 27.4643 27.2002 27.1243 27.2908C26.2178 27.5173 24.9486 27.1775 24.4727 27.9251C24.0874 28.5141 24.9259 29.3976 25.4699 30.0092C25.8552 30.4623 26.3538 30.8474 26.9204 31.0739C28.8014 31.8215 30.7505 31.8894 32.609 31.0966C34.762 30.1904 35.6912 27.6306 34.626 25.6824C33.9008 24.3232 32.4956 24.0287 31.1811 23.621C30.2066 23.3038 29.1867 23.0999 28.2349 22.7375C27.4416 22.443 27.3736 21.7181 28.0082 21.265C28.9601 20.6081 30.8865 20.8799 31.4758 21.8313C31.7931 22.3524 32.1104 22.3977 32.5863 22.3071C33.1076 22.1938 33.6288 22.0352 34.1501 21.9673C34.7167 21.8993 34.626 21.6728 34.4901 21.265C33.8101 19.4074 32.269 18.5239 29.6627 18.456L29.6173 18.4786Z" fill="black"/>
</svg>
